# xmcd
#
# Track frame offsets:
#	150
#	19221
#	39499
#	57485
#	81565
#	100558
#	124795
#	142013
#	157292
#
# Disc length: 2460 seconds
#
# Revision: 1
# Processed by: cddbd v1.5.2PL0 Copyright (c) Steve Scherf et al.
# Submitted via: audiograbber 1.83.01
#
DISCID=7e099a09
DTITLE=Cookie and The Vagrants - Destiny Blues, CD 1 of 2
DYEAR=2009
DGENRE=Blues
TTITLE0=Strut
TTITLE1=Sugar Coated Love
TTITLE2=Black Cat Bone
TTITLE3=Ain't Nobody's Business
TTITLE4=My Babe
TTITLE5=Blue Monday
TTITLE6=If You Love Me Like You Say
TTITLE7=T Bone Shuffle
TTITLE8=As The Years Go Passing By
EXTD=
EXTT0=
EXTT1=
EXTT2=
EXTT3=
EXTT4=
EXTT5=
EXTT6=
EXTT7=
EXTT8=
PLAYORDER=
